<svg fill="none" height="64" viewBox="0 0 64 64" width="64" xmlns="http://www.w3.org/2000/svg"><circle cx="32" cy="32" fill="#fff" r="32"/><path d="m41.9243 62.4297v-9.0816c0-1.7406-1.4105-3.1514-3.1513-3.1514h-.2294c.6088-1.4965 3.2823-7.7096 8.1263-14.076-6.5143-9.8512-9.9036-17.4775-11.5012-28.81084h-1.5274v25.54454c1.1855.6005 2.0002 1.8275 1.9994 3.2469.0008 2.0109-1.6298 3.641-3.6407 3.641s-3.6415-1.6301-3.641-3.641c0-1.4194.8142-2.6464 1.9997-3.2469v-25.54454h-1.5276c-1.5974 11.33334-4.9867 18.95994-11.501 28.81054 4.844 6.3667 7.517 12.5798 8.1255 14.0763h-.2799c-1.7408 0-3.1522 1.4108-3.1522 3.1514v9.0646c-12.78728-4.1921-22.0235-16.2224-22.0235-30.4114 0-17.6731 14.3272-32.00004977 32-32.00004977s31.9995 14.32694977 32 32.00004977c-.0005 14.2082-9.261 26.2515-22.0757 30.4284z" fill="#005450"/></svg>