<svg width="92" height="32" viewBox="0 0 92 32" fill="none" xmlns="http://www.w3.org/2000/svg">
<path d="M20.9622 31.2142V26.6734C20.9622 25.8031 20.2569 25.0977 19.3865 25.0977H19.2718C19.5762 24.3495 20.9129 21.2429 23.335 18.0597C20.0778 13.1341 18.3832 9.32097 17.5843 3.6543H16.8206V16.4266C17.4134 16.7268 17.8208 17.3403 17.8204 18.05C17.8208 19.0555 17.0054 19.8705 16 19.8705C14.9946 19.8705 14.1792 19.0555 14.1795 18.05C14.1795 17.3403 14.5866 16.7268 15.1794 16.4266V3.6543H14.4155C13.6168 9.32097 11.9222 13.1343 8.66504 18.0596C11.0871 21.2429 12.4235 24.3495 12.7278 25.0977H12.5878C11.7174 25.0977 11.0118 25.8031 11.0118 26.6734V31.2057C4.61811 29.1097 0 23.0945 0 16C0 7.16346 7.16359 -4.93067e-07 16 -4.93067e-07C24.8364 -4.93067e-07 31.9997 7.16346 32 16C31.9997 23.1041 27.3695 29.1258 20.9622 31.2142Z" fill="#005450"/>
<path d="M68.8902 4.93567C68.3497 5.20016 67.1652 5.68315 66.2453 6.01664C64.4858 6.66062 64.2098 6.89062 65.0608 7.00561C65.6933 7.08611 65.9693 7.3506 66.1993 8.07508C66.5788 9.27105 66.6938 20.5637 66.3488 23.1742C66.2913 23.6687 66.2223 24.1746 66.2108 24.3011C66.1763 24.6461 66.5673 24.5771 68.0507 23.9676L69.3272 23.4272L70.0172 23.8756C71.1096 24.5771 71.7881 24.7496 73.3061 24.6691C76.204 24.5426 78.2854 23.0937 79.2054 20.6097C79.5619 19.6323 79.6884 17.7348 79.4814 16.6308C79.0329 14.3309 77.2735 12.629 75.238 12.5255C73.9501 12.468 72.9611 12.8705 71.5581 14.0319C71.2591 14.2734 70.9946 14.4689 70.9601 14.4689C70.9256 14.4689 70.9141 12.514 70.9371 10.1335C70.9486 7.74159 70.9256 5.49916 70.8796 5.15417L70.7876 4.52168L70.3277 4.49868C69.9827 4.47568 69.6147 4.59068 68.8902 4.93567ZM72.6966 14.7219C73.8581 15.1129 74.5135 16.2284 74.7665 18.1833C74.9275 19.3908 74.7665 21.1272 74.41 22.1392C73.9731 23.3927 73.0876 24.3356 72.4896 24.1861C72.0296 24.0711 71.4546 23.3927 71.2476 22.7142C71.0751 22.1507 70.8681 18.6778 70.8451 16.0559V15.1819L71.4431 14.8829C72.1216 14.5379 72.1676 14.5379 72.6966 14.7219Z" fill="#005450"/>
<path d="M38.876 6.77563C38.876 6.83313 38.968 6.91363 39.083 6.94813C40.2675 7.32762 40.969 7.9831 41.3025 9.06407C41.728 10.4325 41.8659 14.8599 41.636 19.5863C41.406 24.3241 40.877 26.3826 39.405 28.349C39.1175 28.7285 38.876 29.108 38.876 29.1885C38.876 29.407 39.8765 29.246 41.1185 28.832C43.7519 27.958 45.4193 26.3366 46.0863 24.0022C46.2703 23.3352 46.2933 22.6912 46.3048 16.8264C46.3163 10.122 46.3623 9.37456 46.8108 8.47758C47.0753 7.9831 47.5698 7.48861 48.1448 7.16662C48.3748 7.04012 48.5703 6.87913 48.5818 6.82163C48.5933 6.75263 46.8223 6.69513 43.7404 6.68363C40.67 6.67213 38.876 6.70663 38.876 6.77563Z" fill="#005450"/>
<path d="M55.8265 12.537C54.7456 12.629 53.3311 13.066 52.4686 13.5834C51.6637 14.0664 50.5137 15.2854 50.1112 16.1019C48.6277 19.0918 49.7777 22.3922 52.8366 23.8757C53.9866 24.4391 54.6996 24.6116 56.183 24.6691C57.8275 24.7496 58.5865 24.5886 60.0239 23.8872C63.7843 22.0357 64.7733 17.3323 61.9674 14.5379C60.4034 12.9855 58.368 12.3185 55.8265 12.537ZM56.827 13.2384C57.31 13.5604 57.908 14.5264 58.1955 15.4809C58.897 17.7233 58.828 21.0927 58.069 22.8752C57.793 23.5077 57.1605 24.1286 56.7925 24.1286C56.4475 24.1286 55.4701 23.0822 55.1366 22.3577C54.4811 20.9202 54.1706 18.5743 54.3776 16.7573C54.5731 15.1244 54.9066 14.1929 55.5506 13.5259C55.8495 13.2154 56.16 12.974 56.2635 12.974C56.3555 12.974 56.6085 13.089 56.827 13.2384Z" fill="#005450"/>
<path d="M85.3463 12.583C83.8168 12.905 82.7703 13.6409 82.2184 14.7679C81.8964 15.4119 81.8504 15.6189 81.8619 16.3779C81.8734 18.1373 82.5633 18.9078 85.3808 20.3567C86.3352 20.8512 87.1862 21.3802 87.4852 21.6562C87.9452 22.0932 87.9797 22.1852 87.9797 22.7142C87.9797 23.3927 87.6922 23.8412 87.1057 24.0826C86.7837 24.2206 86.6687 24.2091 86.2892 24.0596C85.0358 23.5422 82.7013 21.5642 82.0459 20.4717C81.7009 19.8738 81.5284 19.9888 81.6089 20.7592C81.7929 22.5532 81.9999 23.9446 82.0919 24.0366C82.3563 24.3011 84.1043 24.6116 85.7028 24.6691C88.9687 24.7956 90.6706 24.0826 91.4871 22.2772C91.7631 21.6447 91.7976 21.4607 91.7516 20.6787C91.6596 19.0688 91.0501 18.4133 88.3822 17.0793C86.5882 16.1824 86.0132 15.7799 85.7603 15.2394C85.3923 14.4689 85.5993 13.5604 86.2317 13.1004C86.5422 12.8935 86.6227 12.8705 86.9102 12.997C88.0142 13.4684 89.5206 14.7449 90.6476 16.1594C90.9581 16.5619 91.2801 16.8838 91.3376 16.8838C91.4756 16.8838 91.3721 13.9629 91.2226 13.3764C91.1076 12.974 90.7051 12.8245 89.0147 12.5715C87.6692 12.3645 86.3237 12.3645 85.3463 12.583Z" fill="#005450"/>
</svg>
